<?xml version="1.0" standalone="no"?><svg xmlns="http://www.w3.org/2000/svg" viewBox="0 0 1440 320"><path fill="#eff6ff" fill-opacity="1" d="M0,320L24,309.3C48,299,96,277,144,266.7C192,256,240,256,288,261.3C336,267,384,277,432,272C480,267,528,245,576,202.7C624,160,672,96,720,96C768,96,816,160,864,192C912,224,960,224,1008,202.7C1056,181,1104,139,1152,128C1200,117,1248,139,1296,154.7C1344,171,1392,181,1416,186.7L1440,192L1440,320L1416,320C1392,320,1344,320,1296,320C1248,320,1200,320,1152,320C1104,320,1056,320,1008,320C960,320,912,320,864,320C816,320,768,320,720,320C672,320,624,320,576,320C528,320,480,320,432,320C384,320,336,320,288,320C240,320,192,320,144,320C96,320,48,320,24,320L0,320Z"></path></svg>